<svg width="1024" height="1024" viewBox="0 0 1024 1024" fill="none" xmlns="http://www.w3.org/2000/svg">
<rect width="1024" height="1024" fill="white"/>
<path d="M410.809 218.378C410.809 198.011 394.322 181.5 373.983 181.5C353.644 181.5 337.156 198.011 337.156 218.378C337.156 238.746 353.644 255.257 373.983 255.257C394.322 255.257 410.809 238.746 410.809 218.378Z" fill="#F3AB3E"/>
<path d="M612.168 384.331V434.484C612.168 471.854 603.723 499.98 586.832 518.862C569.941 537.35 545.193 546.594 512.589 546.594C479.985 546.594 455.042 537.35 437.758 518.862C420.866 499.98 412.421 471.854 412.421 434.484V223.246C412.421 210.264 409.082 200.627 402.404 194.333C396.119 188.039 386.888 184.892 374.71 184.892C362.533 184.892 353.105 188.039 346.428 194.333C340.143 200.627 337 210.264 337 223.246V435.074C337 464.184 340.732 489.753 348.195 511.781C355.659 533.81 366.854 552.298 381.781 567.246C396.708 581.801 414.974 592.815 436.579 600.289C458.577 607.763 483.914 611.5 512.589 611.5C550.692 611.5 582.707 605.009 608.633 592.028C634.559 578.654 654.003 558.789 666.966 532.433C680.322 506.077 687 473.624 687 435.074V384.331H612.168Z" fill="#F3AB3E"/>
<path d="M521.133 218.378C521.133 198.011 537.621 181.5 557.96 181.5H686.853V255.257H557.96C537.621 255.257 521.133 238.746 521.133 218.378Z" fill="#F3AB3E"/>
<path d="M613.199 181.5H686.853V310.574C686.853 330.941 670.365 347.452 650.026 347.452C629.687 347.452 613.199 330.941 613.199 310.574V181.5Z" fill="#F3AB3E"/>
<path d="M456.136 724.716V740.46H440.035V758.796H456.136V807.424C456.136 818.85 459.051 827.553 464.882 833.532C470.713 839.511 478.93 842.5 489.531 842.5C495.76 842.5 501.259 841.304 506.03 838.913L501.061 821.574C498.145 823.301 494.633 824.165 490.525 824.165C481.646 824.165 477.207 818.717 477.207 807.822V758.796H503.844V740.46H477.207V724.716H456.136Z" fill="url(#paint0_linear_857_3288)"/>
<path d="M259 701.398V840.906H281.065V779.124H332.549V758.596H281.065V721.926H344.675V701.398H259Z" fill="url(#paint1_linear_857_3288)"/>
<path d="M350.121 740.46V811.41C350.121 821.242 352.904 828.881 358.47 834.329C364.036 839.776 371.524 842.5 380.933 842.5C394.052 842.5 404.786 836.123 413.135 823.368V840.906H434.007V740.46H413.135V781.715C413.135 794.603 410.683 804.899 405.78 812.606C400.877 820.312 394.715 824.165 387.294 824.165C376.559 824.165 371.192 817.987 371.192 805.63V740.46H350.121Z" fill="url(#paint2_linear_857_3288)"/>
<path d="M510.143 740.46V811.41C510.143 821.242 512.926 828.881 518.492 834.329C524.058 839.776 531.545 842.5 540.954 842.5C554.074 842.5 564.808 836.123 573.157 823.368V840.906H594.029V740.46H573.157V781.715C573.157 794.603 570.705 804.899 565.802 812.606C560.898 820.312 554.736 824.165 547.315 824.165C536.581 824.165 531.214 817.987 531.214 805.63V740.46H510.143Z" fill="url(#paint3_linear_857_3288)"/>
<path d="M612.381 840.906V740.46H633.451V757.201C640.21 744.978 650.083 738.866 663.07 738.866C666.913 738.866 671.22 739.663 675.991 741.258L672.015 760.789C668.702 758.796 664.859 757.799 660.486 757.799C652.269 757.799 645.71 761.785 640.806 769.757C635.903 777.596 633.451 789.089 633.451 804.235V840.906H612.381Z" fill="url(#paint4_linear_857_3288)"/>
<path fill-rule="evenodd" clip-rule="evenodd" d="M765 796.263V787.494C765 774.208 760.892 762.782 752.676 753.215C744.592 743.649 733.394 738.866 719.082 738.866C704.372 738.866 692.842 743.981 684.494 754.212C676.277 764.309 672.169 776.467 672.169 790.683C672.169 804.899 676.277 817.123 684.494 827.354C692.842 837.451 704.372 842.5 719.082 842.5C729.948 842.5 738.96 840.175 746.116 835.525C753.404 830.742 759.235 823.434 763.609 813.602L746.315 806.826C743.002 812.938 739.291 817.389 735.183 820.179C731.075 822.836 726.039 824.165 720.075 824.165C712.654 824.165 706.625 821.707 701.986 816.791C697.348 811.875 694.565 805.032 693.638 796.263H765ZM735.382 763.18C739.622 767.033 742.339 772.348 743.532 779.124H694.632C696.222 772.082 699.137 766.701 703.378 762.981C707.751 759.128 712.986 757.201 719.082 757.201C725.84 757.201 731.273 759.194 735.382 763.18Z" fill="url(#paint5_linear_857_3288)"/>
<path d="M478.488 703.956C478.488 710.835 472.925 716.412 466.064 716.412C459.202 716.412 453.64 710.835 453.64 703.956C453.64 697.077 459.202 691.5 466.064 691.5C472.925 691.5 478.488 697.077 478.488 703.956Z" fill="url(#paint6_linear_857_3288)"/>
<defs>
<linearGradient id="paint0_linear_857_3288" x1="512" y1="691.5" x2="512" y2="842.5" gradientUnits="userSpaceOnUse">
<stop stop-color="#3E71F3"/>
<stop offset="1" stop-color="#3D55D4"/>
</linearGradient>
<linearGradient id="paint1_linear_857_3288" x1="512" y1="691.5" x2="512" y2="842.5" gradientUnits="userSpaceOnUse">
<stop stop-color="#3E71F3"/>
<stop offset="1" stop-color="#3D55D4"/>
</linearGradient>
<linearGradient id="paint2_linear_857_3288" x1="512" y1="691.5" x2="512" y2="842.5" gradientUnits="userSpaceOnUse">
<stop stop-color="#3E71F3"/>
<stop offset="1" stop-color="#3D55D4"/>
</linearGradient>
<linearGradient id="paint3_linear_857_3288" x1="512" y1="691.5" x2="512" y2="842.5" gradientUnits="userSpaceOnUse">
<stop stop-color="#3E71F3"/>
<stop offset="1" stop-color="#3D55D4"/>
</linearGradient>
<linearGradient id="paint4_linear_857_3288" x1="512" y1="691.5" x2="512" y2="842.5" gradientUnits="userSpaceOnUse">
<stop stop-color="#3E71F3"/>
<stop offset="1" stop-color="#3D55D4"/>
</linearGradient>
<linearGradient id="paint5_linear_857_3288" x1="512" y1="691.5" x2="512" y2="842.5" gradientUnits="userSpaceOnUse">
<stop stop-color="#3E71F3"/>
<stop offset="1" stop-color="#3D55D4"/>
</linearGradient>
<linearGradient id="paint6_linear_857_3288" x1="512" y1="691.5" x2="512" y2="842.5" gradientUnits="userSpaceOnUse">
<stop stop-color="#3E71F3"/>
<stop offset="1" stop-color="#3D55D4"/>
</linearGradient>
</defs>
</svg>
