<svg width="14" height="15" viewBox="0 0 14 15" fill="none" xmlns="http://www.w3.org/2000/svg">
<path d="M1 3C1 2.60218 1.15804 2.22064 1.43934 1.93934C1.72064 1.65804 2.10218 1.5 2.5 1.5H4C4.39782 1.5 4.77936 1.65804 5.06066 1.93934C5.34196 2.22064 5.5 2.60218 5.5 3V4.5C5.5 4.89782 5.34196 5.27936 5.06066 5.56066C4.77936 5.84196 4.39782 6 4 6H2.5C2.10218 6 1.72064 5.84196 1.43934 5.56066C1.15804 5.27936 1 4.89782 1 4.5V3ZM8.5 3C8.5 2.60218 8.65804 2.22064 8.93934 1.93934C9.22064 1.65804 9.60218 1.5 10 1.5H11.5C11.8978 1.5 12.2794 1.65804 12.5607 1.93934C12.842 2.22064 13 2.60218 13 3V4.5C13 4.89782 12.842 5.27936 12.5607 5.56066C12.2794 5.84196 11.8978 6 11.5 6H10C9.60218 6 9.22064 5.84196 8.93934 5.56066C8.65804 5.27936 8.5 4.89782 8.5 4.5V3ZM1 10.5C1 10.1022 1.15804 9.72064 1.43934 9.43934C1.72064 9.15804 2.10218 9 2.5 9H4C4.39782 9 4.77936 9.15804 5.06066 9.43934C5.34196 9.72064 5.5 10.1022 5.5 10.5V12C5.5 12.3978 5.34196 12.7794 5.06066 13.0607C4.77936 13.342 4.39782 13.5 4 13.5H2.5C2.10218 13.5 1.72064 13.342 1.43934 13.0607C1.15804 12.7794 1 12.3978 1 12V10.5ZM8.5 10.5C8.5 10.1022 8.65804 9.72064 8.93934 9.43934C9.22064 9.15804 9.60218 9 10 9H11.5C11.8978 9 12.2794 9.15804 12.5607 9.43934C12.842 9.72064 13 10.1022 13 10.5V12C13 12.3978 12.842 12.7794 12.5607 13.0607C12.2794 13.342 11.8978 13.5 11.5 13.5H10C9.60218 13.5 9.22064 13.342 8.93934 13.0607C8.65804 12.7794 8.5 12.3978 8.5 12V10.5Z" stroke="#3E71F3" stroke-width="1.5" stroke-linecap="round" stroke-linejoin="round"/>
</svg>
